<?xml version="1.0" encoding="UTF-8"?> <svg xmlns="http://www.w3.org/2000/svg" viewBox="0 0 157.4 93.06"><g id="Capa_2" data-name="Capa 2"><g id="Layer_1" data-name="Layer 1"><path d="M16.24,81.63a14.18,14.18,0,0,0-6-2.29,26,26,0,0,1-3.32-.86,7.12,7.12,0,0,1-1.94-1,2.69,2.69,0,0,1-.87-1.08A3.75,3.75,0,0,1,3.82,75a2.84,2.84,0,0,1,.34-1.37,3.46,3.46,0,0,1,1-1.16,5.41,5.41,0,0,1,1.65-.81A7.06,7.06,0,0,1,9,71.32a10.71,10.71,0,0,1,3.45.54,10.25,10.25,0,0,1,3.18,1.82L16,74l1.73-2-.4-.31a13.81,13.81,0,0,0-3.73-2.06,13.34,13.34,0,0,0-4.52-.69A10.38,10.38,0,0,0,6,69.36a8,8,0,0,0-2.5,1.3,6.32,6.32,0,0,0-1.69,2,5.29,5.29,0,0,0-.62,2.55,5.92,5.92,0,0,0,.47,2.41,5,5,0,0,0,1.52,1.89A9.5,9.5,0,0,0,5.7,80.83a23.6,23.6,0,0,0,3.66,1,21.13,21.13,0,0,1,3.17.81,7,7,0,0,1,1.88.94,2.65,2.65,0,0,1,.88,1,3.86,3.86,0,0,1,.24,1.45,3.09,3.09,0,0,1-.37,1.5,3.73,3.73,0,0,1-1.06,1.22,5.24,5.24,0,0,1-1.71.83,10.43,10.43,0,0,1-4.55.11,11.54,11.54,0,0,1-2-.56,10.59,10.59,0,0,1-1.86-1,15.93,15.93,0,0,1-1.85-1.41l-.35-.31L0,88.4l.38.32a16.37,16.37,0,0,0,4.46,2.7,14.29,14.29,0,0,0,5.2.91,11.08,11.08,0,0,0,3.24-.46,8,8,0,0,0,2.57-1.3,5.92,5.92,0,0,0,1.72-2,5.58,5.58,0,0,0,.64-2.7,5.1,5.1,0,0,0-2-4.2" style="fill:#5fd0df"></path><polygon points="124.67 87.7 108.82 68.9 106.45 68.9 106.45 92.42 109.11 92.42 109.11 73.2 125.3 92.42 127.33 92.42 127.33 68.9 124.67 68.9 124.67 87.7" style="fill:#5fd0df"></polygon><polygon points="26.66 92.23 45.6 92.23 45.6 89.77 29.11 89.77 29.11 80.74 45.6 80.74 45.6 78.28 26.66 78.28 26.66 92.23" style="fill:#5fd0df"></polygon><rect x="27.41" y="69.09" width="18.19" height="2.46" style="fill:#5fd0df"></rect><polygon points="79.06 92.23 98 92.23 98 89.77 81.52 89.77 81.52 80.74 98 80.74 98 78.28 79.06 78.28 79.06 92.23" style="fill:#5fd0df"></polygon><rect x="79.81" y="69.09" width="18.19" height="2.46" style="fill:#5fd0df"></rect><path d="M70.16,76a6.94,6.94,0,0,0-6.93-6.93H54.05v2.46h9.18a4.48,4.48,0,1,1,0,9h-4l9.6,12.56,2-1.49L64.17,82.9a7,7,0,0,0,6-6.88" style="fill:#5fd0df"></path><polygon points="146.69 68.32 135.62 91.85 137.84 92.89 146.66 74.17 155.17 92.88 157.4 91.86 146.69 68.32" style="fill:#5fd0df"></polygon><path d="M110,.24c-1.24,0-2.47-.06-3.78-.11C102,0,97.69-.19,93.34,1c-4.69,1.22-8.9,4.33-12,6.6-1,.76-2,1.52-2.9,2.3a26.46,26.46,0,0,0-10-8C63.53-.28,58.38-.08,53.39.11c-1.26.05-2.45.1-3.62.11L7.31.53l.49,3.4c.24,1.69.56,3.35,1,4.94A40.35,40.35,0,0,0,23.21,31.46,38.23,38.23,0,0,0,30.86,36,27,27,0,0,0,41.8,37.84c1.39,0,2.76-.05,4.07-.09s2.56-.1,3.77-.1H60.31v-6H49.64c-1.32,0-2.67.05-4,.09-4.51.16-8.78.31-12.39-1.27a31.94,31.94,0,0,1-6.44-3.8A34.3,34.3,0,0,1,14.58,7.43c-.08-.31-.15-.63-.22-.95l35.45-.26c1.27,0,2.57-.06,3.82-.11,4.51-.17,8.77-.34,12.48,1.26a20.87,20.87,0,0,1,8,6.71,27.56,27.56,0,0,0-6.72,13.23C66,35.37,69,44.15,76.08,52.71l.19.2a2.82,2.82,0,0,0,2.06.9,5.06,5.06,0,0,0,2.69-1C86.75,49,94.57,38,87.55,20.76L82,23c5.55,13.61,0,21-3,23.71-4.8-6.47-6.71-12.64-5.68-18.36s4.93-11.09,11.59-16c3.48-2.56,6.63-4.76,9.93-5.62,3.49-.92,7.22-.78,11.16-.63,1.3,0,2.64.1,4,.11l33.12.24c-.16.73-.34,1.44-.53,2.13A33.87,33.87,0,0,1,130,27.14a30.21,30.21,0,0,1-6.54,3.67c-3.46,1.36-7.38,1.18-11.53,1-1.45-.07-3-.14-4.44-.14H97.15v6h10.33c1.34,0,2.71.07,4.16.14,4.6.22,9.35.44,14-1.39A36.76,36.76,0,0,0,133.5,32a40,40,0,0,0,14.86-21.81,50.53,50.53,0,0,0,1.3-6.28l.49-3.4Z" style="fill:#5fd0df"></path></g></g></svg> 